<?xml version="1.0" encoding="UTF-8"?><svg xmlns="http://www.w3.org/2000/svg" viewBox="0 0 173.65 146.89"><defs><style>.d{fill:none;stroke:#000;stroke-miterlimit:10;}</style></defs><g id="a"/><g id="b"><g id="c"><g><g><path class="d" d="M6.21,28.49L5.27,.5h7.09l-.2,14.03c-.03,1.12-.07,2.29-.12,3.49-.05,1.2-.13,2.23-.24,3.1h.16c.29-.86,.63-1.82,1.04-2.86,.4-1.04,.82-2.04,1.23-2.98L20.68,.5h6.43V15.67c0,.44,0,1-.02,1.67-.01,.67-.03,1.36-.06,2.08-.03,.72-.07,1.39-.12,2.02h.16c.21-.68,.46-1.46,.75-2.35,.29-.89,.59-1.79,.92-2.7,.33-.91,.63-1.74,.92-2.47L34.95,.5h7.41l-12.15,27.99h-8.82v-10.74c0-.99,.02-2.04,.06-3.14s.1-2.18,.18-3.25h-.16c-.39,1.23-.8,2.42-1.23,3.57-.43,1.15-.9,2.29-1.39,3.41l-4.31,10.15H6.21Z"/><path class="d" d="M46,28.88c-1.1,0-2.12-.26-3.06-.78-.94-.52-1.69-1.38-2.25-2.59-.56-1.2-.84-2.83-.84-4.9,0-1.04,.12-2.21,.37-3.49,.25-1.28,.62-2.55,1.12-3.8,.5-1.25,1.13-2.4,1.9-3.45,.77-1.04,1.68-1.88,2.72-2.51,1.04-.63,2.22-.94,3.53-.94,1.23,0,2.24,.28,3.04,.84,.8,.56,1.46,1.3,1.98,2.21h.16l1.02-2.67h5.92l-4.59,21.68h-5.92l.2-2.35h-.16c-.58,.81-1.25,1.47-2.04,1.98-.78,.51-1.82,.76-3.1,.76Zm3.06-5.96c.57,0,1.09-.25,1.55-.76,.46-.51,.86-1.18,1.2-2,.34-.82,.59-1.71,.74-2.65,.16-.78,.24-1.58,.24-2.39s-.13-1.47-.39-1.98c-.26-.51-.65-.76-1.18-.76-.68,0-1.31,.39-1.88,1.18-.57,.78-1.04,1.77-1.39,2.96-.35,1.19-.53,2.41-.53,3.67,0,1.83,.55,2.74,1.65,2.74Z"/><path class="d" d="M62.46,28.49l4.59-21.68h5.92l-.23,3.02h.16c.71-1.2,1.53-2.07,2.47-2.61,.94-.54,2.1-.8,3.49-.8s2.42,.28,3.27,.84c.85,.56,1.47,1.31,1.86,2.25,.39,.94,.59,1.96,.59,3.06,0,.73-.05,1.48-.14,2.23-.09,.76-.2,1.48-.33,2.16l-2.43,11.52h-7.41l2.47-11.84c.08-.34,.16-.76,.23-1.27,.08-.51,.12-.99,.12-1.43,0-.55-.14-.96-.43-1.23-.29-.27-.63-.41-1.02-.41-.73,0-1.4,.45-2.02,1.35-.61,.9-1.12,2.32-1.51,4.25l-2.23,10.58h-7.41Z"/><path class="d" d="M93.9,37.89c-1.59,0-2.93-.12-4-.35-1.07-.23-2.06-.52-2.98-.86v-6.08c.99,.52,2.06,.93,3.21,1.21,1.15,.29,2.34,.43,3.57,.43s2.15-.29,2.84-.86c.69-.58,1.16-1.31,1.39-2.19l.2-.86c.13-.6,.3-1.25,.51-1.96h-.16c-.52,.65-1.14,1.2-1.84,1.65-.71,.44-1.67,.67-2.9,.67-1.07,0-2.04-.25-2.92-.76-.88-.51-1.56-1.35-2.06-2.51-.5-1.16-.74-2.74-.74-4.72,0-1.07,.12-2.25,.37-3.53,.25-1.28,.62-2.55,1.12-3.8,.5-1.25,1.12-2.41,1.88-3.47,.76-1.06,1.66-1.9,2.7-2.53,1.04-.63,2.22-.94,3.53-.94,1.23,0,2.2,.24,2.92,.73,.72,.48,1.43,1.26,2.14,2.33h.16l1.02-2.67h5.92l-4.7,22.19c-.47,2.25-1.25,4.02-2.35,5.31s-2.4,2.21-3.92,2.76c-1.52,.55-3.15,.82-4.9,.82Zm3.33-14.97c.57,0,1.09-.25,1.55-.76,.46-.51,.85-1.16,1.18-1.96,.33-.8,.57-1.65,.74-2.55,.17-.9,.25-1.74,.25-2.53s-.12-1.47-.37-1.98c-.25-.51-.63-.76-1.16-.76-.68,0-1.31,.39-1.9,1.18-.59,.78-1.06,1.77-1.41,2.96-.35,1.19-.53,2.41-.53,3.67,0,1.83,.55,2.74,1.65,2.74Z"/><path class="d" d="M3,81.49l5.92-27.99h7.96c3.42,0,6.13,.9,8.11,2.7,1.99,1.8,2.98,4.43,2.98,7.88s-.63,6.71-1.9,9.31c-1.27,2.6-3.09,4.6-5.47,6-2.38,1.4-5.24,2.1-8.58,2.1H3Zm8.82-6.19h1.33c1.44,0,2.7-.45,3.78-1.35,1.08-.9,1.93-2.17,2.55-3.8,.61-1.63,.92-3.52,.92-5.66,0-1.59-.35-2.8-1.04-3.63-.69-.82-1.65-1.23-2.88-1.23h-1.37l-3.29,15.68Z"/><path class="d" d="M39.14,81.88c-2.67,0-4.72-.73-6.17-2.18-1.45-1.45-2.18-3.51-2.18-6.17,0-1.85,.26-3.63,.78-5.31,.52-1.69,1.29-3.19,2.31-4.51,1.02-1.32,2.29-2.36,3.82-3.14,1.53-.77,3.3-1.16,5.31-1.16,2.67,0,4.72,.73,6.17,2.18s2.18,3.51,2.18,6.17c0,1.86-.26,3.63-.78,5.31-.52,1.69-1.29,3.19-2.31,4.51-1.02,1.32-2.29,2.37-3.82,3.14-1.53,.77-3.3,1.16-5.31,1.16Zm.82-5.57c.73,0,1.38-.44,1.96-1.31,.57-.88,1.03-1.99,1.37-3.33,.34-1.35,.51-2.72,.51-4.13,0-1.7-.55-2.55-1.65-2.55-.73,0-1.39,.44-1.96,1.31-.58,.88-1.03,1.98-1.35,3.31s-.49,2.72-.49,4.15c0,1.7,.54,2.55,1.61,2.55Z"/><path class="d" d="M56.82,81.49l-.94-27.99h7.09l-.2,14.03c-.03,1.12-.07,2.29-.12,3.49-.05,1.2-.13,2.23-.24,3.1h.16c.29-.86,.63-1.82,1.04-2.86,.4-1.04,.82-2.04,1.23-2.98l6.43-14.78h6.43v15.17c0,.44,0,1-.02,1.67-.01,.67-.03,1.36-.06,2.08-.03,.72-.07,1.39-.12,2.02h.16c.21-.68,.46-1.46,.75-2.35,.29-.89,.59-1.79,.92-2.7,.33-.91,.63-1.74,.92-2.47l5.29-13.41h7.41l-12.15,27.99h-8.82v-10.74c0-.99,.02-2.04,.06-3.14s.1-2.18,.18-3.25h-.16c-.39,1.23-.8,2.42-1.23,3.57-.43,1.15-.9,2.29-1.39,3.41l-4.31,10.15h-8.31Z"/><path class="d" d="M98.8,81.88c-2.67,0-4.72-.73-6.17-2.18-1.45-1.45-2.18-3.51-2.18-6.17,0-1.85,.26-3.63,.78-5.31,.52-1.69,1.29-3.19,2.31-4.51,1.02-1.32,2.29-2.36,3.82-3.14,1.53-.77,3.3-1.16,5.31-1.16,2.67,0,4.72,.73,6.17,2.18s2.18,3.51,2.18,6.17c0,1.86-.26,3.63-.78,5.31-.52,1.69-1.29,3.19-2.31,4.51-1.02,1.32-2.29,2.37-3.82,3.14-1.53,.77-3.3,1.16-5.31,1.16Zm.82-5.57c.73,0,1.38-.44,1.96-1.31,.57-.88,1.03-1.99,1.37-3.33,.34-1.35,.51-2.72,.51-4.13,0-1.7-.55-2.55-1.65-2.55-.73,0-1.39,.44-1.96,1.31-.58,.88-1.03,1.98-1.35,3.31s-.49,2.72-.49,4.15c0,1.7,.54,2.55,1.61,2.55Z"/><path class="d" d="M113.06,81.49l4.59-21.68h5.92l-.23,3.02h.16c.71-1.2,1.53-2.07,2.47-2.61,.94-.54,2.1-.8,3.49-.8s2.42,.28,3.27,.84c.85,.56,1.47,1.31,1.86,2.25,.39,.94,.59,1.96,.59,3.06,0,.73-.05,1.48-.14,2.23-.09,.76-.2,1.48-.33,2.16l-2.43,11.52h-7.41l2.47-11.84c.08-.34,.16-.76,.23-1.27,.08-.51,.12-.99,.12-1.43,0-.55-.14-.96-.43-1.23-.29-.27-.63-.41-1.02-.41-.73,0-1.4,.45-2.02,1.35-.61,.9-1.12,2.32-1.51,4.25l-2.23,10.58h-7.41Z"/><path class="d" d="M138.81,63.1c.65-1.54,1.3-3.19,1.94-4.94,.64-1.75,1.2-3.31,1.67-4.66h6.66l.16,.43c-.57,1.33-1.31,2.83-2.19,4.49-.89,1.66-1.79,3.22-2.7,4.68h-5.53Z"/><path class="d" d="M152.81,81.88c-1.44,0-2.72-.1-3.86-.31-1.14-.21-2.12-.51-2.96-.9v-5.96c1.18,.65,2.27,1.1,3.27,1.35,1.01,.25,2.03,.37,3.08,.37,.29,0,.64-.03,1.06-.1,.42-.06,.78-.19,1.08-.37,.3-.18,.45-.47,.45-.86,0-.29-.07-.55-.2-.78-.13-.24-.41-.51-.84-.82s-1.08-.71-1.94-1.18c-1.36-.73-2.35-1.58-2.96-2.55-.61-.97-.92-2.13-.92-3.49,0-2.04,.73-3.69,2.18-4.96,1.45-1.27,3.69-1.9,6.72-1.9,1.41,0,2.71,.17,3.9,.51,1.19,.34,2.33,.85,3.43,1.53l-2.31,4.82c-.73-.47-1.55-.89-2.45-1.25-.9-.37-1.73-.55-2.49-.55-.97,0-1.45,.43-1.45,1.29,0,.37,.2,.69,.59,.98,.39,.29,1.04,.65,1.96,1.1,2.87,1.41,4.31,3.45,4.31,6.11s-.87,4.68-2.61,5.98c-1.74,1.29-4.08,1.94-7.04,1.94Z"/><path class="d" d="M3,134.49l5.92-27.99h7.13c2.48,0,4.47,.37,5.98,1.12,1.5,.75,2.59,1.75,3.27,3.02,.68,1.27,1.02,2.69,1.02,4.25,0,2.25-.52,4.13-1.55,5.66-1.03,1.53-2.48,2.68-4.33,3.47-1.86,.78-3.98,1.18-6.39,1.18h-1.65l-1.92,9.29H3Zm10.74-15.4h1.22c1.18,0,2.12-.37,2.82-1.12,.71-.74,1.06-1.69,1.06-2.84,0-.65-.2-1.23-.61-1.74-.41-.51-1.06-.76-1.98-.76h-1.14l-1.37,6.47Z"/><path class="d" d="M36.75,134.88c-2.67,0-4.72-.73-6.17-2.18-1.45-1.45-2.18-3.51-2.18-6.17,0-1.86,.26-3.62,.78-5.31,.52-1.69,1.29-3.19,2.31-4.51,1.02-1.32,2.29-2.37,3.82-3.14,1.53-.77,3.3-1.16,5.31-1.16,2.67,0,4.72,.73,6.17,2.17,1.45,1.45,2.18,3.51,2.18,6.17,0,1.86-.26,3.62-.78,5.31-.52,1.69-1.29,3.19-2.31,4.51-1.02,1.32-2.29,2.37-3.82,3.14-1.53,.77-3.3,1.16-5.31,1.16Zm.82-5.57c.73,0,1.38-.44,1.96-1.31,.57-.88,1.03-1.99,1.37-3.33,.34-1.35,.51-2.72,.51-4.13,0-1.7-.55-2.55-1.65-2.55-.73,0-1.39,.44-1.96,1.31-.58,.88-1.03,1.98-1.35,3.31-.33,1.33-.49,2.72-.49,4.16,0,1.7,.54,2.55,1.61,2.55Z"/><path class="d" d="M51.01,134.49l4.59-21.68h5.92l-.35,3.61h.16c.89-1.54,1.83-2.59,2.82-3.16,.99-.56,2.22-.84,3.68-.84,.26,0,.55,.02,.86,.06,.31,.04,.54,.07,.67,.1l-1.61,7.33c-.26-.1-.6-.2-1.02-.29-.42-.09-.86-.14-1.33-.14-1.15,0-2.15,.4-3,1.2-.85,.8-1.5,2.23-1.94,4.29l-2.04,9.53h-7.41Z"/><path class="d" d="M75.55,134.88c-1.88,0-3.31-.41-4.29-1.22-.98-.81-1.47-2.14-1.47-4,0-.52,.04-1.12,.14-1.8,.09-.68,.2-1.28,.33-1.8l1.61-7.68h-2.94l.78-3.65,4.15-1.69,2.63-4.59h4.94l-.94,4.35h5.53l-1.22,5.57h-5.53l-1.61,7.33c-.08,.37-.15,.74-.22,1.12-.07,.38-.1,.67-.1,.88,0,.45,.12,.76,.35,.94,.23,.18,.52,.27,.86,.27,.5,0,1.04-.08,1.65-.25s1.22-.39,1.84-.65v5.57c-.81,.39-1.74,.71-2.8,.94-1.06,.24-2.29,.35-3.7,.35Z"/><path class="d" d="M85.58,143.89c-.68,0-1.4-.05-2.16-.16s-1.36-.22-1.8-.35v-5.8c.37,.1,.74,.19,1.14,.25,.39,.06,.76,.1,1.1,.1,.94,0,1.65-.2,2.14-.59,.48-.39,.82-.99,1-1.8l3.65-17.17h-3.17l.82-3.65,3.61-1.84,.31-1.41c.55-2.46,1.48-4.23,2.8-5.33,1.32-1.1,3.08-1.65,5.27-1.65,1.02,0,2.01,.1,2.96,.29,.95,.2,1.77,.46,2.45,.8l-1.88,5.06c-.37-.18-.76-.33-1.2-.43s-.86-.16-1.27-.16c-.97,0-1.56,.46-1.76,1.37l-.31,1.37h4.04l-1.25,5.57h-4l-3.92,18.34c-.29,1.38-.76,2.62-1.43,3.7-.67,1.08-1.58,1.93-2.74,2.55-1.16,.61-2.62,.92-4.37,.92Z"/><path class="d" d="M111.65,134.88c-2.67,0-4.72-.73-6.17-2.18-1.45-1.45-2.18-3.51-2.18-6.17,0-1.86,.26-3.62,.78-5.31,.52-1.69,1.29-3.19,2.31-4.51,1.02-1.32,2.29-2.37,3.82-3.14,1.53-.77,3.3-1.16,5.31-1.16,2.67,0,4.72,.73,6.17,2.17,1.45,1.45,2.18,3.51,2.18,6.17,0,1.86-.26,3.62-.78,5.31-.52,1.69-1.29,3.19-2.31,4.51-1.02,1.32-2.29,2.37-3.82,3.14-1.53,.77-3.3,1.16-5.31,1.16Zm.82-5.57c.73,0,1.38-.44,1.96-1.31,.57-.88,1.03-1.99,1.37-3.33,.34-1.35,.51-2.72,.51-4.13,0-1.7-.55-2.55-1.65-2.55-.73,0-1.39,.44-1.96,1.31-.58,.88-1.03,1.98-1.35,3.31-.33,1.33-.49,2.72-.49,4.16,0,1.7,.54,2.55,1.61,2.55Z"/><path class="d" d="M125.92,134.49l6.31-29.79h7.41l-6.31,29.79h-7.41Z"/><path class="d" d="M138.66,134.49l4.59-21.68h7.45l-4.62,21.68h-7.41Zm9.13-23.75c-1.05,0-1.91-.2-2.61-.61-.69-.4-1.04-1.1-1.04-2.1,0-1.28,.38-2.27,1.14-2.96,.76-.69,1.82-1.04,3.17-1.04,.97,0,1.82,.2,2.55,.61,.73,.41,1.1,1.1,1.1,2.1,0,1.2-.35,2.17-1.06,2.9-.71,.73-1.79,1.1-3.25,1.1Z"/><path class="d" d="M160.92,134.88c-2.67,0-4.72-.73-6.17-2.18-1.45-1.45-2.18-3.51-2.18-6.17,0-1.86,.26-3.62,.78-5.31,.52-1.69,1.29-3.19,2.31-4.51,1.02-1.32,2.29-2.37,3.82-3.14,1.53-.77,3.3-1.16,5.31-1.16,2.67,0,4.72,.73,6.17,2.17,1.45,1.45,2.18,3.51,2.18,6.17,0,1.86-.26,3.62-.78,5.31-.52,1.69-1.29,3.19-2.31,4.51-1.02,1.32-2.29,2.37-3.82,3.14-1.53,.77-3.3,1.16-5.31,1.16Zm.82-5.57c.73,0,1.38-.44,1.96-1.31,.57-.88,1.03-1.99,1.37-3.33,.34-1.35,.51-2.72,.51-4.13,0-1.7-.55-2.55-1.65-2.55-.73,0-1.39,.44-1.96,1.31-.58,.88-1.03,1.98-1.35,3.31-.33,1.33-.49,2.72-.49,4.16,0,1.7,.54,2.55,1.61,2.55Z"/></g><g><path d="M3.21,31.49L2.27,3.5h7.09l-.2,14.03c-.03,1.12-.07,2.29-.12,3.49-.05,1.2-.13,2.23-.24,3.1h.16c.29-.86,.63-1.82,1.04-2.86,.4-1.04,.82-2.04,1.23-2.98L17.68,3.5h6.43v15.17c0,.44,0,1-.02,1.67-.01,.67-.03,1.36-.06,2.08-.03,.72-.07,1.39-.12,2.02h.16c.21-.68,.46-1.46,.75-2.35,.29-.89,.59-1.79,.92-2.7,.33-.91,.63-1.74,.92-2.47L31.95,3.5h7.41l-12.15,27.99h-8.82v-10.74c0-.99,.02-2.04,.06-3.14s.1-2.18,.18-3.25h-.16c-.39,1.23-.8,2.42-1.23,3.57-.43,1.15-.9,2.29-1.39,3.41l-4.31,10.15H3.21Z"/><path d="M43,31.88c-1.1,0-2.12-.26-3.06-.78-.94-.52-1.69-1.38-2.25-2.59-.56-1.2-.84-2.83-.84-4.9,0-1.04,.12-2.21,.37-3.49,.25-1.28,.62-2.55,1.12-3.8,.5-1.25,1.13-2.4,1.9-3.45,.77-1.04,1.68-1.88,2.72-2.51,1.04-.63,2.22-.94,3.53-.94,1.23,0,2.24,.28,3.04,.84,.8,.56,1.46,1.3,1.98,2.21h.16l1.02-2.67h5.92l-4.59,21.68h-5.92l.2-2.35h-.16c-.58,.81-1.25,1.47-2.04,1.98-.78,.51-1.82,.76-3.1,.76Zm3.06-5.96c.57,0,1.09-.25,1.55-.76,.46-.51,.86-1.18,1.2-2,.34-.82,.59-1.71,.74-2.65,.16-.78,.24-1.58,.24-2.39s-.13-1.47-.39-1.98c-.26-.51-.65-.76-1.18-.76-.68,0-1.31,.39-1.88,1.18-.57,.78-1.04,1.77-1.39,2.96-.35,1.19-.53,2.41-.53,3.67,0,1.83,.55,2.74,1.65,2.74Z"/><path d="M59.46,31.49l4.59-21.68h5.92l-.23,3.02h.16c.71-1.2,1.53-2.07,2.47-2.61,.94-.54,2.1-.8,3.49-.8s2.42,.28,3.27,.84c.85,.56,1.47,1.31,1.86,2.25,.39,.94,.59,1.96,.59,3.06,0,.73-.05,1.48-.14,2.23-.09,.76-.2,1.48-.33,2.16l-2.43,11.52h-7.41l2.47-11.84c.08-.34,.16-.76,.23-1.27,.08-.51,.12-.99,.12-1.43,0-.55-.14-.96-.43-1.23-.29-.27-.63-.41-1.02-.41-.73,0-1.4,.45-2.02,1.35-.61,.9-1.12,2.32-1.51,4.25l-2.23,10.58h-7.41Z"/><path d="M90.9,40.89c-1.59,0-2.93-.12-4-.35-1.07-.23-2.06-.52-2.98-.86v-6.08c.99,.52,2.06,.93,3.21,1.21,1.15,.29,2.34,.43,3.57,.43s2.15-.29,2.84-.86c.69-.58,1.16-1.31,1.39-2.19l.2-.86c.13-.6,.3-1.25,.51-1.96h-.16c-.52,.65-1.14,1.2-1.84,1.65-.71,.44-1.67,.67-2.9,.67-1.07,0-2.04-.25-2.92-.76-.88-.51-1.56-1.35-2.06-2.51-.5-1.16-.74-2.74-.74-4.72,0-1.07,.12-2.25,.37-3.53,.25-1.28,.62-2.55,1.12-3.8,.5-1.25,1.12-2.41,1.88-3.47,.76-1.06,1.66-1.9,2.7-2.53,1.04-.63,2.22-.94,3.53-.94,1.23,0,2.2,.24,2.92,.73,.72,.48,1.43,1.26,2.14,2.33h.16l1.02-2.67h5.92l-4.7,22.19c-.47,2.25-1.25,4.02-2.35,5.31s-2.4,2.21-3.92,2.76c-1.52,.55-3.15,.82-4.9,.82Zm3.33-14.97c.57,0,1.09-.25,1.55-.76,.46-.51,.85-1.16,1.18-1.96,.33-.8,.57-1.65,.74-2.55,.17-.9,.25-1.74,.25-2.53s-.12-1.47-.37-1.98c-.25-.51-.63-.76-1.16-.76-.68,0-1.31,.39-1.9,1.18-.59,.78-1.06,1.77-1.41,2.96-.35,1.19-.53,2.41-.53,3.67,0,1.83,.55,2.74,1.65,2.74Z"/><path d="M0,84.49l5.92-27.99h7.96c3.42,0,6.13,.9,8.11,2.7,1.99,1.8,2.98,4.43,2.98,7.88s-.63,6.71-1.9,9.31c-1.27,2.6-3.09,4.6-5.47,6-2.38,1.4-5.24,2.1-8.58,2.1H0Zm8.82-6.19h1.33c1.44,0,2.7-.45,3.78-1.35,1.08-.9,1.93-2.17,2.55-3.8,.61-1.63,.92-3.52,.92-5.66,0-1.59-.35-2.8-1.04-3.63-.69-.82-1.65-1.23-2.88-1.23h-1.37l-3.29,15.68Z"/><path d="M36.14,84.88c-2.67,0-4.72-.73-6.17-2.18-1.45-1.45-2.18-3.51-2.18-6.17,0-1.85,.26-3.63,.78-5.31,.52-1.69,1.29-3.19,2.31-4.51,1.02-1.32,2.29-2.36,3.82-3.14,1.53-.77,3.3-1.16,5.31-1.16,2.67,0,4.72,.73,6.17,2.18s2.18,3.51,2.18,6.17c0,1.86-.26,3.63-.78,5.31-.52,1.69-1.29,3.19-2.31,4.51-1.02,1.32-2.29,2.37-3.82,3.14-1.53,.77-3.3,1.16-5.31,1.16Zm.82-5.57c.73,0,1.38-.44,1.96-1.31,.57-.88,1.03-1.99,1.37-3.33,.34-1.35,.51-2.72,.51-4.13,0-1.7-.55-2.55-1.65-2.55-.73,0-1.39,.44-1.96,1.31-.58,.88-1.03,1.98-1.35,3.31s-.49,2.72-.49,4.15c0,1.7,.54,2.55,1.61,2.55Z"/><path d="M53.82,84.49l-.94-27.99h7.09l-.2,14.03c-.03,1.12-.07,2.29-.12,3.49-.05,1.2-.13,2.23-.24,3.1h.16c.29-.86,.63-1.82,1.04-2.86,.4-1.04,.82-2.04,1.23-2.98l6.43-14.78h6.43v15.17c0,.44,0,1-.02,1.67-.01,.67-.03,1.36-.06,2.08-.03,.72-.07,1.39-.12,2.02h.16c.21-.68,.46-1.46,.75-2.35,.29-.89,.59-1.79,.92-2.7,.33-.91,.63-1.74,.92-2.47l5.29-13.41h7.41l-12.15,27.99h-8.82v-10.74c0-.99,.02-2.04,.06-3.14s.1-2.18,.18-3.25h-.16c-.39,1.23-.8,2.42-1.23,3.57-.43,1.15-.9,2.29-1.39,3.41l-4.31,10.15h-8.31Z"/><path d="M95.8,84.88c-2.67,0-4.72-.73-6.17-2.18-1.45-1.45-2.18-3.51-2.18-6.17,0-1.85,.26-3.63,.78-5.31,.52-1.69,1.29-3.19,2.31-4.51,1.02-1.32,2.29-2.36,3.82-3.14,1.53-.77,3.3-1.16,5.31-1.16,2.67,0,4.72,.73,6.17,2.18s2.18,3.51,2.18,6.17c0,1.86-.26,3.63-.78,5.31-.52,1.69-1.29,3.19-2.31,4.51-1.02,1.32-2.29,2.37-3.82,3.14-1.53,.77-3.3,1.16-5.31,1.16Zm.82-5.57c.73,0,1.38-.44,1.96-1.31,.57-.88,1.03-1.99,1.37-3.33,.34-1.35,.51-2.72,.51-4.13,0-1.7-.55-2.55-1.65-2.55-.73,0-1.39,.44-1.96,1.31-.58,.88-1.03,1.98-1.35,3.31s-.49,2.72-.49,4.15c0,1.7,.54,2.55,1.61,2.55Z"/><path d="M110.06,84.49l4.59-21.68h5.92l-.23,3.02h.16c.71-1.2,1.53-2.07,2.47-2.61,.94-.54,2.1-.8,3.49-.8s2.42,.28,3.27,.84c.85,.56,1.47,1.31,1.86,2.25,.39,.94,.59,1.96,.59,3.06,0,.73-.05,1.48-.14,2.23-.09,.76-.2,1.48-.33,2.16l-2.43,11.52h-7.41l2.47-11.84c.08-.34,.16-.76,.23-1.27,.08-.51,.12-.99,.12-1.43,0-.55-.14-.96-.43-1.23-.29-.27-.63-.41-1.02-.41-.73,0-1.4,.45-2.02,1.35-.61,.9-1.12,2.32-1.51,4.25l-2.23,10.58h-7.41Z"/><path d="M135.81,66.1c.65-1.54,1.3-3.19,1.94-4.94,.64-1.75,1.2-3.31,1.67-4.66h6.66l.16,.43c-.57,1.33-1.31,2.83-2.19,4.49-.89,1.66-1.79,3.22-2.7,4.68h-5.53Z"/><path d="M149.81,84.88c-1.44,0-2.72-.1-3.86-.31-1.14-.21-2.12-.51-2.96-.9v-5.96c1.18,.65,2.27,1.1,3.27,1.35,1.01,.25,2.03,.37,3.08,.37,.29,0,.64-.03,1.06-.1,.42-.06,.78-.19,1.08-.37,.3-.18,.45-.47,.45-.86,0-.29-.07-.55-.2-.78-.13-.24-.41-.51-.84-.82s-1.08-.71-1.94-1.18c-1.36-.73-2.35-1.58-2.96-2.55-.61-.97-.92-2.13-.92-3.49,0-2.04,.73-3.69,2.18-4.96,1.45-1.27,3.69-1.9,6.72-1.9,1.41,0,2.71,.17,3.9,.51,1.19,.34,2.33,.85,3.43,1.53l-2.31,4.82c-.73-.47-1.55-.89-2.45-1.25-.9-.37-1.73-.55-2.49-.55-.97,0-1.45,.43-1.45,1.29,0,.37,.2,.69,.59,.98,.39,.29,1.04,.65,1.96,1.1,2.87,1.41,4.31,3.45,4.31,6.11s-.87,4.68-2.61,5.98c-1.74,1.29-4.08,1.94-7.04,1.94Z"/><path d="M0,137.49l5.92-27.99h7.13c2.48,0,4.47,.37,5.98,1.12,1.5,.75,2.59,1.75,3.27,3.02,.68,1.27,1.02,2.69,1.02,4.25,0,2.25-.52,4.13-1.55,5.66-1.03,1.53-2.48,2.68-4.33,3.47-1.86,.78-3.98,1.18-6.39,1.18h-1.65l-1.92,9.29H0Zm10.74-15.4h1.22c1.18,0,2.12-.37,2.82-1.12,.71-.74,1.06-1.69,1.06-2.84,0-.65-.2-1.23-.61-1.74-.41-.51-1.06-.76-1.98-.76h-1.14l-1.37,6.47Z"/><path d="M33.75,137.88c-2.67,0-4.72-.73-6.17-2.18-1.45-1.45-2.18-3.51-2.18-6.17,0-1.86,.26-3.62,.78-5.31,.52-1.69,1.29-3.19,2.31-4.51,1.02-1.32,2.29-2.37,3.82-3.14,1.53-.77,3.3-1.16,5.31-1.16,2.67,0,4.72,.73,6.17,2.17,1.45,1.45,2.18,3.51,2.18,6.17,0,1.86-.26,3.62-.78,5.31-.52,1.69-1.29,3.19-2.31,4.51-1.02,1.32-2.29,2.37-3.82,3.14-1.53,.77-3.3,1.16-5.31,1.16Zm.82-5.57c.73,0,1.38-.44,1.96-1.31,.57-.88,1.03-1.99,1.37-3.33,.34-1.35,.51-2.72,.51-4.13,0-1.7-.55-2.55-1.65-2.55-.73,0-1.39,.44-1.96,1.31-.58,.88-1.03,1.98-1.35,3.31-.33,1.33-.49,2.72-.49,4.16,0,1.7,.54,2.55,1.61,2.55Z"/><path d="M48.01,137.49l4.59-21.68h5.92l-.35,3.61h.16c.89-1.54,1.83-2.59,2.82-3.16,.99-.56,2.22-.84,3.68-.84,.26,0,.55,.02,.86,.06,.31,.04,.54,.07,.67,.1l-1.61,7.33c-.26-.1-.6-.2-1.02-.29-.42-.09-.86-.14-1.33-.14-1.15,0-2.15,.4-3,1.2-.85,.8-1.5,2.23-1.94,4.29l-2.04,9.53h-7.41Z"/><path d="M72.55,137.88c-1.88,0-3.31-.41-4.29-1.22-.98-.81-1.47-2.14-1.47-4,0-.52,.04-1.12,.14-1.8,.09-.68,.2-1.28,.33-1.8l1.61-7.68h-2.94l.78-3.65,4.15-1.69,2.63-4.59h4.94l-.94,4.35h5.53l-1.22,5.57h-5.53l-1.61,7.33c-.08,.37-.15,.74-.22,1.12-.07,.38-.1,.67-.1,.88,0,.45,.12,.76,.35,.94,.23,.18,.52,.27,.86,.27,.5,0,1.04-.08,1.65-.25s1.22-.39,1.84-.65v5.57c-.81,.39-1.74,.71-2.8,.94-1.06,.24-2.29,.35-3.7,.35Z"/><path d="M82.58,146.89c-.68,0-1.4-.05-2.16-.16s-1.36-.22-1.8-.35v-5.8c.37,.1,.74,.19,1.14,.25,.39,.06,.76,.1,1.1,.1,.94,0,1.65-.2,2.14-.59,.48-.39,.82-.99,1-1.8l3.65-17.17h-3.17l.82-3.65,3.61-1.84,.31-1.41c.55-2.46,1.48-4.23,2.8-5.33,1.32-1.1,3.08-1.65,5.27-1.65,1.02,0,2.01,.1,2.96,.29,.95,.2,1.77,.46,2.45,.8l-1.88,5.06c-.37-.18-.76-.33-1.2-.43-.43-.11-.86-.16-1.27-.16-.97,0-1.56,.46-1.76,1.37l-.31,1.37h4.04l-1.25,5.57h-4l-3.92,18.34c-.29,1.38-.76,2.62-1.43,3.7-.67,1.08-1.58,1.93-2.74,2.55-1.16,.61-2.62,.92-4.37,.92Z"/><path d="M108.65,137.88c-2.67,0-4.72-.73-6.17-2.18-1.45-1.45-2.18-3.51-2.18-6.17,0-1.86,.26-3.62,.78-5.31,.52-1.69,1.29-3.19,2.31-4.51,1.02-1.32,2.29-2.37,3.82-3.14,1.53-.77,3.3-1.16,5.31-1.16,2.67,0,4.72,.73,6.17,2.17,1.45,1.45,2.18,3.51,2.18,6.17,0,1.86-.26,3.62-.78,5.31-.52,1.69-1.29,3.19-2.31,4.51-1.02,1.32-2.29,2.37-3.82,3.14-1.53,.77-3.3,1.16-5.31,1.16Zm.82-5.57c.73,0,1.38-.44,1.96-1.31,.57-.88,1.03-1.99,1.37-3.33,.34-1.35,.51-2.72,.51-4.13,0-1.7-.55-2.55-1.65-2.55-.73,0-1.39,.44-1.96,1.31-.58,.88-1.03,1.98-1.35,3.31-.33,1.33-.49,2.72-.49,4.16,0,1.7,.54,2.55,1.61,2.55Z"/><path d="M122.92,137.49l6.31-29.79h7.41l-6.31,29.79h-7.41Z"/><path d="M135.66,137.49l4.59-21.68h7.45l-4.62,21.68h-7.41Zm9.13-23.75c-1.05,0-1.91-.2-2.61-.61-.69-.4-1.04-1.1-1.04-2.1,0-1.28,.38-2.27,1.14-2.96,.76-.69,1.82-1.04,3.17-1.04,.97,0,1.82,.2,2.55,.61,.73,.41,1.1,1.1,1.1,2.1,0,1.2-.35,2.17-1.06,2.9-.71,.73-1.79,1.1-3.25,1.1Z"/><path d="M157.92,137.88c-2.67,0-4.72-.73-6.17-2.18-1.45-1.45-2.18-3.51-2.18-6.17,0-1.86,.26-3.62,.78-5.31,.52-1.69,1.29-3.19,2.31-4.51,1.02-1.32,2.29-2.37,3.82-3.14,1.53-.77,3.3-1.16,5.31-1.16,2.67,0,4.72,.73,6.17,2.17,1.45,1.45,2.18,3.51,2.18,6.17,0,1.86-.26,3.62-.78,5.31-.52,1.69-1.29,3.19-2.31,4.51-1.02,1.32-2.29,2.37-3.82,3.14-1.53,.77-3.3,1.16-5.31,1.16Zm.82-5.57c.73,0,1.38-.44,1.96-1.31,.57-.88,1.03-1.99,1.37-3.33,.34-1.35,.51-2.72,.51-4.13,0-1.7-.55-2.55-1.65-2.55-.73,0-1.39,.44-1.96,1.31-.58,.88-1.03,1.98-1.35,3.31-.33,1.33-.49,2.72-.49,4.16,0,1.7,.54,2.55,1.61,2.55Z"/></g></g></g></g></svg>