<?xml version="1.0" encoding="UTF-8"?><svg xmlns="http://www.w3.org/2000/svg" viewBox="0 0 29.53 8.69"><g id="a"/><g id="b"><g id="c"><g><path d="M4.4,8.57H2.09V1.9H0V0H6.49V1.9h-2.09v6.67Z"/><path d="M13.08,5.23c0,1.11-.3,1.97-.89,2.56-.59,.6-1.4,.89-2.44,.89-.64,0-1.21-.13-1.7-.4-.5-.27-.89-.66-1.17-1.18-.28-.52-.43-1.14-.43-1.88,0-1.1,.3-1.94,.89-2.53,.59-.59,1.41-.89,2.45-.89,.64,0,1.21,.13,1.7,.4,.49,.26,.88,.65,1.16,1.16,.28,.51,.43,1.13,.43,1.87Zm-4.3,0c0,.57,.08,1,.23,1.3,.15,.3,.41,.45,.77,.45s.6-.15,.75-.45c.15-.3,.22-.73,.22-1.3s-.07-.99-.22-1.28c-.15-.29-.4-.44-.76-.44s-.6,.15-.76,.44c-.15,.29-.23,.72-.23,1.28Z"/><path d="M21.79,4.1c0,.99-.19,1.82-.56,2.48-.37,.67-.89,1.16-1.57,1.49-.67,.33-1.46,.49-2.38,.49h-2.77V0h2.96c1.38,0,2.44,.35,3.19,1.06,.75,.7,1.12,1.72,1.12,3.05Zm-2.4,.08c0-1.54-.63-2.32-1.88-2.32h-.67V6.67h.52c.7,0,1.22-.2,1.55-.61,.33-.41,.49-1.03,.49-1.87Z"/><path d="M29.53,5.23c0,1.11-.3,1.97-.89,2.56-.59,.6-1.4,.89-2.44,.89-.64,0-1.21-.13-1.7-.4-.5-.27-.89-.66-1.17-1.18-.28-.52-.43-1.14-.43-1.88,0-1.1,.3-1.94,.89-2.53,.59-.59,1.41-.89,2.45-.89,.64,0,1.21,.13,1.7,.4,.49,.26,.88,.65,1.16,1.16,.28,.51,.43,1.13,.43,1.87Zm-4.3,0c0,.57,.08,1,.23,1.3,.15,.3,.41,.45,.77,.45s.6-.15,.75-.45c.15-.3,.22-.73,.22-1.3s-.07-.99-.22-1.28c-.15-.29-.4-.44-.76-.44s-.6,.15-.76,.44c-.15,.29-.23,.72-.23,1.28Z"/></g></g></g></svg>